<mxfile host="app.diagrams.net" modified="2022-02-24T13:29:57.434Z" agent="5.0 (Windows NT 10.0; Win64; x64) AppleWebKit/537.36 (KHTML, like Gecko) Chrome/98.0.4758.102 Safari/537.36 Edg/98.0.1108.56" etag="zNj83JC1WpWiF3RpDwrn" version="16.5.6" type="github">
  <diagram id="2yIK3QB9ohMtq-SD9So0" name="Page-1">
    <mxGraphModel dx="1944" dy="611" grid="1" gridSize="10" guides="1" tooltips="1" connect="1" arrows="1" fold="1" page="1" pageScale="1" pageWidth="827" pageHeight="1169" math="0" shadow="0">
      <root>
        <mxCell id="0" />
        <mxCell id="1" parent="0" />
        <mxCell id="QebK2otyR1KtoY8we2oD-1" value="&lt;b style=&quot;font-weight: normal&quot; id=&quot;docs-internal-guid-b7096297-7fff-afdb-dbf0-07ac63e77348&quot;&gt;&lt;img width=&quot;497px;&quot; height=&quot;221px;&quot; src=&quot;https://lh6.googleusercontent.com/6cu_hmIgyYEb5tMZj0_YsuEkTaqidMmE6DZZSRznMIy27f9m-wSn0fJ7YJz4YGOuvMYTSzUhrntR5T7Sm7vBvF3rGacqEo9oVybavf04bTQ4dVkMgoUgs7hyQ9IIFsjw_qQI_jiduucd&quot;&gt;&lt;/b&gt;" style="text;whiteSpace=wrap;html=1;" vertex="1" parent="1">
          <mxGeometry x="-790" y="270" width="520" height="240" as="geometry" />
        </mxCell>
        <mxCell id="QebK2otyR1KtoY8we2oD-4" value="" style="endArrow=classic;html=1;rounded=0;strokeColor=#9AC7BF;strokeWidth=3;" edge="1" parent="1">
          <mxGeometry width="50" height="50" relative="1" as="geometry">
            <mxPoint x="-470" y="320" as="sourcePoint" />
            <mxPoint x="-250" y="270" as="targetPoint" />
          </mxGeometry>
        </mxCell>
        <mxCell id="QebK2otyR1KtoY8we2oD-5" value="" style="endArrow=classic;html=1;rounded=0;strokeColor=#9AC7BF;strokeWidth=3;" edge="1" parent="1">
          <mxGeometry width="50" height="50" relative="1" as="geometry">
            <mxPoint x="-540" y="360" as="sourcePoint" />
            <mxPoint x="-250" y="320" as="targetPoint" />
          </mxGeometry>
        </mxCell>
        <mxCell id="QebK2otyR1KtoY8we2oD-6" value="" style="endArrow=classic;html=1;rounded=0;strokeColor=#9AC7BF;strokeWidth=3;" edge="1" parent="1">
          <mxGeometry width="50" height="50" relative="1" as="geometry">
            <mxPoint x="-460" y="390" as="sourcePoint" />
            <mxPoint x="-250" y="370" as="targetPoint" />
          </mxGeometry>
        </mxCell>
        <mxCell id="QebK2otyR1KtoY8we2oD-7" value="" style="endArrow=classic;html=1;rounded=0;strokeColor=#9AC7BF;strokeWidth=3;" edge="1" parent="1">
          <mxGeometry width="50" height="50" relative="1" as="geometry">
            <mxPoint x="-500" y="420" as="sourcePoint" />
            <mxPoint x="-250" y="420" as="targetPoint" />
          </mxGeometry>
        </mxCell>
        <mxCell id="QebK2otyR1KtoY8we2oD-8" value="" style="endArrow=classic;html=1;rounded=0;strokeColor=#9AC7BF;strokeWidth=3;" edge="1" parent="1">
          <mxGeometry width="50" height="50" relative="1" as="geometry">
            <mxPoint x="-330" y="450" as="sourcePoint" />
            <mxPoint x="-250" y="470" as="targetPoint" />
          </mxGeometry>
        </mxCell>
        <mxCell id="QebK2otyR1KtoY8we2oD-9" value="&lt;font style=&quot;font-size: 18px&quot;&gt;# comment&lt;/font&gt;" style="text;html=1;strokeColor=#FFFFFF;fillColor=none;align=center;verticalAlign=middle;whiteSpace=wrap;rounded=0;" vertex="1" parent="1">
          <mxGeometry x="-240" y="260" width="110" height="30" as="geometry" />
        </mxCell>
        <mxCell id="QebK2otyR1KtoY8we2oD-11" value="&lt;font style=&quot;font-size: 18px&quot;&gt;FROM :&amp;nbsp; using which base image&lt;/font&gt;" style="text;html=1;strokeColor=#FFFFFF;fillColor=none;align=center;verticalAlign=middle;whiteSpace=wrap;rounded=0;" vertex="1" parent="1">
          <mxGeometry x="-240" y="310" width="190" height="30" as="geometry" />
        </mxCell>
        <mxCell id="QebK2otyR1KtoY8we2oD-12" value="&lt;font style=&quot;font-size: 18px&quot;&gt;RUN: Linux command want to execute&lt;/font&gt;" style="text;html=1;strokeColor=#FFFFFF;fillColor=none;align=center;verticalAlign=middle;whiteSpace=wrap;rounded=0;" vertex="1" parent="1">
          <mxGeometry x="-250" y="360" width="210" height="30" as="geometry" />
        </mxCell>
        <mxCell id="QebK2otyR1KtoY8we2oD-13" value="&lt;font style=&quot;font-size: 18px&quot;&gt;COPY : Copy local file to&amp;nbsp; image&lt;/font&gt;" style="text;html=1;strokeColor=#FFFFFF;fillColor=none;align=center;verticalAlign=middle;whiteSpace=wrap;rounded=0;" vertex="1" parent="1">
          <mxGeometry x="-240" y="420" width="210" height="30" as="geometry" />
        </mxCell>
        <mxCell id="QebK2otyR1KtoY8we2oD-14" value="&lt;font style=&quot;font-size: 18px&quot;&gt;CMD : run Linux command after docker run&lt;/font&gt;" style="text;html=1;strokeColor=#FFFFFF;fillColor=none;align=center;verticalAlign=middle;whiteSpace=wrap;rounded=0;" vertex="1" parent="1">
          <mxGeometry x="-250" y="460" width="230" height="40" as="geometry" />
        </mxCell>
      </root>
    </mxGraphModel>
  </diagram>
</mxfile>
